<?xml version="1.0" encoding="iso-8859-1"?>
<!-- Generator: Adobe Illustrator 18.0.0, SVG Export Plug-In . SVG Version: 6.00 Build 0)  -->
<!DOCTYPE svg PUBLIC "-//W3C//DTD SVG 1.1//EN" "http://www.w3.org/Graphics/SVG/1.1/DTD/svg11.dtd">
<svg version="1.1" id="Capa_1" xmlns="http://www.w3.org/2000/svg" xmlns:xlink="http://www.w3.org/1999/xlink" x="0px" y="0px"
	 viewBox="0 0 297 297" style="enable-background:new 0 0 297 297;" xml:space="preserve">
<path d="M16.308,269.079H9.884c-5.458,0-9.884,4.425-9.884,9.884c0,5.458,4.426,9.883,9.884,9.883h32.615
	c5.458,0,9.884-4.425,9.884-9.883c0-5.459-4.426-9.884-9.884-9.884h-6.424v-29.156h144.158c4.715,27.734,28.902,48.923,57.96,48.923
	c32.426,0,58.807-26.38,58.807-58.807c0-29.058-21.19-53.244-48.925-57.96V76.845h6.426c3.177,0,6.159-1.527,8.018-4.105
	c1.858-2.577,2.362-5.89,1.358-8.903L247.57,14.912c-1.346-4.036-5.123-6.758-9.377-6.758H26.191c-4.255,0-8.031,2.722-9.377,6.758
	L0.507,63.836c-1.004,3.014-0.499,6.326,1.359,8.903c1.857,2.578,4.84,4.105,8.018,4.105h6.424V269.079z M270.237,252.3
	l-15.343-15.343h21.712C275.597,242.579,273.384,247.785,270.237,252.3z M245.11,191.625c5.618,1.009,10.821,3.221,15.335,6.364
	l-15.335,15.337V191.625z M231.273,191.625v21.713l-15.343-15.342C220.445,194.85,225.651,192.636,231.273,191.625z
	 M206.147,207.781l15.341,15.34h-21.708C200.789,217.5,203.002,212.295,206.147,207.781z M199.779,236.957h21.702l-15.336,15.339
	C203.001,247.782,200.789,242.577,199.779,236.957z M231.273,246.734v21.718c-5.622-1.01-10.829-3.225-15.345-6.371L231.273,246.734
	z M245.11,246.741l15.343,15.342c-4.516,3.146-9.722,5.36-15.343,6.369V246.741z M254.884,223.121l15.348-15.351
	c3.15,4.517,5.364,9.725,6.375,15.351H254.884z M240.788,57.077h-36.24l-9.719-29.156h36.239L240.788,57.077z M122.309,27.921
	v29.156H80.674l9.719-29.156H122.309z M142.076,27.921h31.915l9.719,29.156h-41.634V27.921z M33.315,27.921h36.24l-9.719,29.156
	H23.596L33.315,27.921z M228.309,76.845v61.771h-45.465v-22.731c0-5.459-4.425-9.884-9.883-9.884h-32.616
	c-5.458,0-9.883,4.425-9.883,9.884v22.731h-12.849v-39.04c0-5.458-4.426-9.883-9.884-9.883H58.806c-5.458,0-9.883,4.425-9.883,9.883
	v39.04H36.075V76.845H228.309z M163.077,138.616h-12.849v-12.849h12.849V138.616z M97.846,138.616H68.69V109.46h29.156V138.616z
	 M228.309,158.384v13.695c-24.519,4.169-43.906,23.558-48.075,48.076H36.075v-61.771H228.309z"/>
<g>
</g>
<g>
</g>
<g>
</g>
<g>
</g>
<g>
</g>
<g>
</g>
<g>
</g>
<g>
</g>
<g>
</g>
<g>
</g>
<g>
</g>
<g>
</g>
<g>
</g>
<g>
</g>
<g>
</g>
</svg>
